<svg xmlns="http://www.w3.org/2000/svg" version="1.1" xmlns:xlink="http://www.w3.org/1999/xlink" xmlns:svgjs="http://svgjs.dev/svgjs" width="1920" height="1080" preserveAspectRatio="none" viewBox="0 0 1920 1080"><g mask="url(&quot;#SvgjsMask1017&quot;)" fill="none"><rect width="1920" height="1080" x="0" y="0" fill="rgba(141, 210, 192, 1)"></rect><path d="M 0,3 C 128,67.6 384,320.6 640,326 C 896,331.4 1024,50.8 1280,30 C 1536,9.2 1792,183.6 1920,222L1920 1080L0 1080z" fill="rgba(148, 214, 212, 1)"></path><path d="M 0,638 C 128,606.6 384,477 640,481 C 896,485 1024,651.4 1280,658 C 1536,664.6 1792,542.8 1920,514L1920 1080L0 1080z" fill="rgba(177, 220, 229, 1)"></path><path d="M 0,978 C 128,930.2 384,723.8 640,739 C 896,754.2 1024,1030 1280,1054 C 1536,1078 1792,898 1920,859L1920 1080L0 1080z" fill="rgba(240, 240, 240, 1)"></path></g><defs><mask id="SvgjsMask1017"><rect width="1920" height="1080" fill="#ffffff"></rect></mask></defs></svg>